<svg width="10" height="14" viewBox="0 0 10 14" fill="none" xmlns="http://www.w3.org/2000/svg">
<path d="M1.55636 13.7762L1.09459 13.3176C0.950374 13.1733 0.870926 12.9813 0.870926 12.7761C0.870926 12.571 0.950374 12.3787 1.09459 12.2344L6.32608 7.00313L1.08878 1.76584C0.944569 1.62174 0.865234 1.42949 0.865234 1.22438C0.865234 1.01928 0.944568 0.826917 1.08878 0.682705L1.54771 0.224002C1.84615 -0.0746673 2.33229 -0.0746673 2.63073 0.224002L8.88878 6.45963C9.03288 6.60373 9.13441 6.79575 9.13441 7.00267L9.13441 7.00506C9.13441 7.21029 9.03276 7.4023 8.88878 7.5464L2.64769 13.7762C2.50359 13.9206 2.30577 13.9998 2.10066 14C1.89544 14 1.70035 13.9206 1.55636 13.7762Z" fill="white"/>
</svg>
