<svg width="8" height="14" viewBox="0 0 8 14" fill="none" xmlns="http://www.w3.org/2000/svg">
<path d="M2.00428 2.7017C2.00428 2.61443 2.0164 2.42596 2.04064 2.13748C2.0667 1.8484 2.17578 1.54599 2.37153 1.22843C2.56546 0.912082 2.87999 0.627852 3.31755 0.376347C3.75329 0.126055 4.38296 0 5.20474 0H7.51979V2.52292H5.82472C5.65684 2.52292 5.50049 2.58595 5.35928 2.71019C5.21929 2.83442 5.14717 2.9526 5.14717 3.06229V4.63192H7.51919C7.49434 4.93918 7.46707 5.23796 7.43555 5.52643L7.34162 6.28882C7.30405 6.54638 7.26587 6.78516 7.22829 7.00515H5.1302V14H2.00428V7.00455H0.479492V4.63192H2.00428V2.7017Z" fill="white"/>
</svg>
