<svg width="10" height="14" viewBox="0 0 10 14" fill="none" xmlns="http://www.w3.org/2000/svg">
<path d="M8.44364 13.7762L8.90541 13.3176C9.04963 13.1733 9.12907 12.9813 9.12907 12.7761C9.12907 12.571 9.04963 12.3787 8.90541 12.2344L3.67392 7.00313L8.91122 1.76584C9.05543 1.62174 9.13477 1.42949 9.13477 1.22438C9.13477 1.01928 9.05543 0.826917 8.91122 0.682705L8.45229 0.224002C8.15385 -0.0746673 7.66771 -0.0746673 7.36927 0.224002L1.11122 6.45963C0.967123 6.60373 0.865593 6.79575 0.865593 7.00267L0.865593 7.00506C0.865593 7.21029 0.967236 7.4023 1.11122 7.5464L7.35231 13.7762C7.49641 13.9206 7.69423 13.9998 7.89934 14C8.10456 14 8.29965 13.9206 8.44364 13.7762Z" fill="white"/>
</svg>
